<?xml version="1.0" standalone="no"?>
<!DOCTYPE svg PUBLIC "-//W3C//DTD SVG 20010904//EN"
 "http://www.w3.org/TR/2001/REC-SVG-20010904/DTD/svg10.dtd">
<svg version="1.0" xmlns="http://www.w3.org/2000/svg"
 width="800.000000pt" height="800.000000pt" viewBox="0 0 800.000000 800.000000"
 preserveAspectRatio="xMidYMid meet">
<metadata>
Created by potrace 1.11, written by Peter Selinger 2001-2013
</metadata>
<g transform="translate(0.000000,800.000000) scale(0.100000,-0.100000)"
fill="#000000" stroke="none">
<path d="M4494 6580 c-49 -24 -81 -53 -120 -110 -17 -25 -56 -80 -87 -123 -30
-42 -76 -120 -102 -173 -26 -52 -67 -118 -92 -147 -141 -161 -156 -173 -196
-158 -21 8 -33 5 -64 -16 -39 -26 -143 -132 -143 -146 0 -4 -18 -30 -40 -58
-25 -32 -37 -56 -33 -67 7 -20 74 -102 149 -182 28 -30 73 -79 100 -109 27
-30 56 -62 64 -71 8 -9 57 -62 109 -119 52 -56 103 -107 114 -112 25 -14 66 3
91 38 282 384 720 1044 748 1126 6 17 17 41 25 52 29 43 13 67 -118 177 -72
60 -221 153 -310 192 -55 24 -56 24 -95 6z"/>
<path d="M5124 6201 c-5 -5 -24 -17 -42 -28 -26 -14 -57 -57 -132 -183 -151
-251 -238 -387 -441 -680 -43 -63 -98 -146 -121 -185 -24 -38 -70 -110 -104
-159 l-62 -88 20 -47 c26 -59 38 -72 74 -76 16 -1 33 -11 39 -21 20 -35 91
-95 145 -122 30 -16 87 -47 126 -70 121 -70 191 -87 243 -56 35 20 113 141
149 231 34 82 57 115 112 155 41 31 124 168 134 223 3 17 23 46 49 70 54 49
133 156 256 342 94 144 127 220 138 319 4 38 2 44 -34 73 -156 128 -199 157
-338 225 -155 77 -195 92 -211 77z"/>
<path d="M2444 6099 c-75 -9 -134 -33 -134 -53 0 -9 5 -16 12 -16 6 0 8 -3 5
-7 -4 -4 -21 4 -38 16 -28 21 -35 22 -72 11 -70 -19 -150 -40 -181 -45 -16 -3
-32 -8 -36 -10 -4 -2 -22 -7 -41 -10 -19 -3 -52 -10 -74 -15 -22 -5 -56 -11
-76 -14 -20 -3 -87 -17 -148 -32 -100 -23 -118 -31 -171 -72 -32 -26 -74 -59
-93 -74 -44 -34 -77 -102 -71 -146 5 -40 51 -110 100 -150 42 -35 59 -40 285
-90 75 -17 159 -41 185 -53 27 -12 68 -23 92 -24 34 -2 51 -10 78 -36 24 -23
45 -34 67 -34 48 -2 76 -14 133 -56 28 -20 109 -70 179 -110 136 -77 205 -96
254 -70 33 18 57 5 69 -37 6 -20 41 -76 77 -124 36 -48 65 -92 65 -97 0 -5 3
-11 8 -13 10 -5 38 -53 76 -133 29 -62 81 -143 173 -268 15 -22 47 -50 70 -64
34 -19 45 -34 55 -66 7 -28 29 -60 62 -92 30 -29 65 -80 85 -120 19 -39 58
-107 88 -153 29 -45 53 -85 53 -88 0 -3 10 -20 22 -36 20 -29 83 -64 130 -73
29 -6 30 -8 33 -57 3 -59 45 -143 123 -246 85 -112 182 -261 182 -277 0 -8 11
-27 25 -43 62 -74 80 -163 52 -263 -8 -30 -18 -89 -22 -130 -6 -62 -29 -211
-49 -309 -2 -14 -7 -61 -10 -105 -5 -85 -53 -339 -87 -466 -22 -82 -31 -242
-17 -318 13 -69 52 -95 168 -109 36 -4 407 -6 825 -5 655 3 793 5 873 12 38 3
44 86 56 866 9 548 12 566 94 657 63 69 92 110 92 131 0 7 26 44 58 82 98 117
121 149 128 180 3 17 21 75 40 131 18 55 36 120 40 145 3 24 15 78 25 120 21
86 26 157 15 209 -6 29 -1 52 25 115 35 88 46 129 54 202 3 26 8 56 11 66 6
21 -4 57 -16 57 -5 0 -31 -13 -56 -30 -26 -16 -50 -28 -52 -25 -9 9 35 64 135
171 157 169 172 186 199 231 13 22 27 51 29 63 5 27 -23 84 -62 125 -42 45
-93 104 -138 160 -126 156 -159 166 -223 72 -43 -62 -180 -226 -273 -328 -45
-49 -96 -109 -113 -133 -36 -51 -146 -190 -179 -226 -12 -14 -38 -45 -57 -70
-19 -24 -45 -54 -57 -66 -44 -41 -31 -65 102 -199 145 -147 180 -163 240 -107
64 59 184 152 235 182 29 17 66 44 82 60 16 17 34 30 39 30 19 0 8 -19 -28
-50 -21 -17 -65 -56 -98 -85 -33 -30 -76 -68 -95 -85 -19 -17 -62 -51 -95 -75
-33 -24 -67 -53 -75 -64 -20 -30 -35 -26 -78 17 -21 20 -76 71 -122 113 -232
208 -274 238 -360 262 -30 8 -118 33 -195 56 -77 22 -183 47 -235 56 -52 9
-106 18 -120 20 -97 17 -140 17 -146 2 -7 -20 2 -37 82 -143 66 -89 141 -178
220 -264 78 -84 143 -165 159 -195 30 -60 133 -312 144 -353 7 -23 24 -70 40
-104 15 -35 36 -93 46 -130 20 -77 63 -134 125 -169 22 -13 40 -28 40 -35 0
-13 -83 -70 -142 -97 -22 -9 -38 -24 -39 -34 -1 -10 -3 -31 -5 -48 -7 -55 -6
-770 1 -795 15 -53 15 -167 0 -186 -14 -18 -14 -18 -15 6 -1 14 -3 34 -5 45
-2 11 -6 77 -9 148 -2 70 -7 130 -10 135 -2 4 -7 39 -11 77 -3 39 -8 86 -10
105 -2 19 -7 64 -10 100 -20 216 -61 498 -76 516 -4 5 -27 11 -51 13 -79 6
-123 9 -171 10 -57 1 -59 17 -4 36 44 15 160 84 201 120 16 14 34 25 41 25 16
0 85 70 85 86 0 24 -40 116 -65 148 -14 18 -25 37 -25 43 0 8 -40 67 -125 183
-11 15 -64 92 -118 171 -107 158 -148 213 -201 275 -20 23 -36 44 -36 48 0 3
-25 41 -55 83 -30 43 -62 92 -71 108 -21 38 -117 167 -138 184 -9 7 -61 28
-115 47 -134 45 -199 79 -211 110 -12 32 -4 67 21 90 25 23 26 107 2 151 -10
17 -56 73 -103 124 -47 50 -92 100 -100 109 -13 15 -67 75 -181 201 -153 168
-209 225 -243 247 -23 14 -44 30 -48 36 -5 7 -15 6 -31 -3 -31 -17 -38 -13
-67 43 -30 60 -102 134 -148 153 -20 8 -68 33 -107 56 -38 22 -74 40 -80 40
-20 0 -110 -14 -126 -19 -11 -3 -20 5 -29 27 -20 46 -125 112 -295 184 -71 30
-79 31 -141 24z"/>
<path d="M5665 5598 c-64 -110 -126 -206 -180 -279 -24 -33 -47 -69 -51 -81
-3 -12 -24 -51 -46 -87 -22 -35 -43 -72 -46 -80 -7 -17 -141 -217 -242 -361
-33 -47 -60 -89 -60 -94 0 -4 -11 -21 -25 -38 -25 -29 -32 -62 -17 -85 18 -28
275 -166 332 -178 19 -4 56 -20 81 -36 82 -52 97 -49 186 40 95 94 148 157
233 276 35 50 75 101 88 115 13 14 51 60 85 103 34 43 79 100 99 125 20 26 37
50 37 54 1 4 19 37 41 73 53 87 93 183 86 209 -6 24 -96 116 -161 166 -22 16
-73 59 -114 94 -71 61 -221 146 -259 146 -12 0 -34 -27 -67 -82z"/>
</g>
</svg>
