<?xml version="1.0" encoding="UTF-8" standalone="no"?>
<svg
   xmlns:dc="http://purl.org/dc/elements/1.1/"
   xmlns:cc="http://creativecommons.org/ns#"
   xmlns:rdf="http://www.w3.org/1999/02/22-rdf-syntax-ns#"
   xmlns:svg="http://www.w3.org/2000/svg"
   xmlns="http://www.w3.org/2000/svg"
   version="1.1"
   x="0px"
   y="0px"
   width="512px"
   height="512px"
   viewBox="0 0 512 512"
   enable-background="new 0 0 512 512"
   xml:space="preserve"
   id="svg3383"><metadata
     id="metadata3390"><rdf:RDF><cc:Work
         rdf:about=""><dc:format>image/svg+xml</dc:format><dc:type
           rdf:resource="http://purl.org/dc/dcmitype/StillImage" /><dc:title></dc:title></cc:Work></rdf:RDF></metadata><defs
     id="defs3388" /><rect
     style="fill:#e6e6e6;fill-opacity:1;fill-rule:nonzero;stroke:none;stroke-width:1.79999995;stroke-linecap:round;stroke-linejoin:round;stroke-miterlimit:4;stroke-dasharray:none;stroke-opacity:1"
     id="rect3365"
     width="512"
     height="512"
     x="0"
     y="0" /><path
     id="user-6-icon"
     d="m 377.055,221.5 c 0,66.275 -53.726,120 -120,120 -66.274,0 -120,-53.725 -120,-120 0,-66.273 53.726,-120 120,-120 66.274,0 120,53.727 120,120 z m -20.954,125.66 c -27.968,22.084 -62.633,34.34 -99.046,34.34 -36.835,0 -71.839,-12.543 -99.934,-35.051 C 83.067,373.625 50,468.627 50,512 l 412,0 C 462,469 428.678,374.676 356.101,347.16 Z"
     style="fill:#ffffff" /></svg>