<svg xmlns="http://www.w3.org/2000/svg" viewBox="0 0 40 40">
  <g
     transform="scale(1.6666667,1.6666667)">
    <path
       d="m 7.0000003,14.729 0.855,-0.791 c 1,0.484 1.635,0.852 2.7599997,1.654 2.113,-2.399 3.511,-3.616 6.106,-5.231 L 17,11.001 C 14.859,12.87 13.291,14.95 11.033,19 9.6400003,17.36 8.7110003,16.314 7.0000003,14.729 Z"
       style="fill:#5cb85c" />
    <path
       d="M 24,8 24,24 0,24 0,8 Z M 22,8 2,8 2,22 22,22 Z M 20,1 C 20,0.448 19.553,0 19,0 18.447,0 18,0.448 18,1 l 0,2 c 0,0.552 0.447,1 1,1 0.553,0 1,-0.448 1,-1 z M 6,3 C 6,3.552 5.553,4 5,4 4.447,4 4,3.552 4,3 L 4,1 C 4,0.448 4.447,0 5,0 5.553,0 6,0.448 6,1 Z"
       style="fill:#333333" />
    <path
       style="fill:#f23e3e"
       d="M 24,2 24,8 -5.2367806e-8,8 l 0,-6 L 2.9999999,2 l 0,1 c 0,1.103 0.897,2 2,2 1.103,0 2,-0.897 2,-2 l 0,-1 L 17,2 17,3 c 0,1.103 0.897,2 2,2 1.103,0 2,-0.897 2,-2 l 0,-1 z" />
  </g>
</svg>
