<?xml version="1.0" encoding="UTF-8" standalone="no"?>
<svg
   xmlns:dc="http://purl.org/dc/elements/1.1/"
   xmlns:cc="http://creativecommons.org/ns#"
   xmlns:rdf="http://www.w3.org/1999/02/22-rdf-syntax-ns#"
   xmlns:svg="http://www.w3.org/2000/svg"
   xmlns="http://www.w3.org/2000/svg"
   version="1.1"
   id="svg2"
   height="580"
   width="580">
  <defs
     id="defs4" />
  <metadata
     id="metadata7">
    <rdf:RDF>
      <cc:Work
         rdf:about="">
        <dc:format>image/svg+xml</dc:format>
        <dc:type
           rdf:resource="http://purl.org/dc/dcmitype/StillImage" />
        <dc:title></dc:title>
      </cc:Work>
    </rdf:RDF>
  </metadata>
  <g
     transform="translate(0,-472.36214)"
     id="layer1">
    <path
       id="path3097"
       d="m 204.99999,1029.2908 c 0,-1.2522 -2.03477,-1.5 -12.31291,-1.5 -12.18512,0 -12.34079,-0.029 -15,-2.8048 l -2.68709,-2.8047 0,-17.1953 0,-17.19525 4.5,0 4.5,0 0,15.50005 0,15.5 3,0 3,0 0,-12.5 0,-12.5 4.5,0 4.5,0 0,12.5 0,12.5 3,0 3,0 0,-15.5 0,-15.50005 4.5,0 4.5,0 0,21.50005 0,21.5 -4.5,0 c -3.33333,0 -4.5,-0.3889 -4.5,-1.5 z m -179.999999,-6 0,-4.5 11.5,0 11.5,0 0,-3.5 0,-3.5 -11.5,0 -11.5,0 0,-9.1953 c 0,-8.6165 0.16913,-9.3718 2.68709,-12 2.6806,-2.79798 2.71924,-2.80475 16,-2.80475 l 13.31291,0 0,4.50005 0,4.5 -11.5,0 -11.5,0 0,3 0,3 11.5,0 11.5,0 0,9.6952 c 0,9.1592 -0.1486,9.8504 -2.68709,12.5 -2.68061,2.798 -2.71924,2.8048 -16,2.8048 l -13.31291,0 0,-4.5 z m 38,-15.5 0,-20.00005 13.999996,0 14,0 0,20.00005 0,20 -14,0 -13.999996,0 0,-20 z m 18.999996,0 0,-11 -5,0 -5,0 0,11 0,11 5,0 5,0 0,-11 z m 15,-1.5 0,-21.50005 4.500003,0 c 3.33333,0 4.5,0.38889 4.5,1.5 0,1.26882 2.38889,1.5 15.5,1.5 l 15.5,0 0,20.00005 0,20 -4.5,0 -4.5,0 0,-15.5 0,-15.5 -3.5,0 -3.5,0 0,12.5 0,12.5 -4.5,0 -4.5,0 0,-12.5 0,-12.5 -3,0 -3,0 0,15.5 0,15.5 -4.5,0 -4.500003,0 0,-21.5 z m 45.000003,1.5 0,-20.00005 14,0 14,0 0,4.50005 0,4.5 -9.5,0 -9.5,0 0,3 c 0,3 0,3 6,3 l 6,0 0,4.4501 0,4.45 -5.75,0.3 c -5.65558,0.2949 -5.75,0.3491 -5.75,3.2999 l 0,3 9.25,0.2875 9.25,0.2875 0,4.4625 0,4.4625 -14,0 -14,0 0,-20 z m 77,0 0,-20.00005 4.5,0 4.5,0 0,7.50005 0,7.5 5,0 5,0 0,-3.5 c 0,-3.4815 0.0238,-3.5 4.5,-3.5 l 4.5,0 0,16 0,16 -4.5,0 -4.5,0 0,-8 0,-8 -5,0 -5,0 0,8 0,8 -4.5,0 -4.5,0 0,-20 z m 33,0 0,-20.00005 14,0 14,0 0,4.50005 0,4.5 -9.5,0 -9.5,0 0,3 c 0,3 0,3 6,3 l 6,0 0,4.4501 0,4.45 -5.75,0.3 c -5.65558,0.2949 -5.75,0.3491 -5.75,3.2999 l 0,3 9.25,0.2875 9.25,0.2875 0,4.4625 0,4.4625 -14,0 -14,0 0,-20 z m 33,0 0,-20.00005 10.29705,0 10.29705,0 3.70295,3.79215 c 3.66182,3.7501 3.70295,3.8833 3.70295,12 l 0,8.2079 -4.5,0 c -2.475,0 -4.5,0.179 -4.5,0.3979 0,0.2188 1.11958,2.3563 2.48795,4.75 1.36838,2.3936 2.49338,5.8146 2.5,7.6021 0.0115,3.0964 -0.16684,3.25 -3.77332,3.25 -3.66444,0 -3.89605,-0.2157 -7.25,-6.75 l -3.46463,-6.75 -0.29569,6.75 -0.29569,6.75 -4.45431,0 -4.45431,0 0,-20 z m 19,-8 c 0,-2.9334 -0.11111,-3 -5,-3 -4.88889,0 -5,0.067 -5,3 0,2.9333 0.11111,3 5,3 4.88889,0 5,-0.067 5,-3 z m 14,8 0,-20.00005 15.8945,0 15.8945,0 -1.2528,4.25005 -1.2528,4.25 -10.1417,0.2849 -10.1417,0.285 0,2.965 0,2.9651 7.56739,0 c 6.73842,0 7.51043,0.1917 7.04749,1.75 -0.28595,0.9625 -0.80995,2.9671 -1.16446,4.4548 -0.60351,2.5325 -1.03634,2.7236 -6.79748,3 -6.10433,0.2928 -6.15294,0.3189 -6.15294,3.2952 l 0,3 9.89304,0.5 9.89305,0.5 1.25145,4.25 1.25146,4.25 -15.8945,0 -15.8945,0 0,-20 z m 37,17.2393 c 0,-1.6115 1.87323,-5.553 4.5,-9.4686 2.475,-3.6894 4.5,-7.1862 4.5,-7.7707 0,-0.5846 -2.025,-4.0814 -4.5,-7.7708 -2.62677,-3.9156 -4.5,-7.8571 -4.5,-9.4686 0,-2.59947 0.25909,-2.76065 4.43759,-2.76065 4.29559,0 4.52466,0.15999 7.15893,5.00005 1.49673,2.75 3.0444,5 3.43926,5 0.39486,0 1.68586,-2.25 2.86887,-5 2.12256,-4.93407 2.20996,-5.00005 6.62315,-5.00005 4.21629,0 4.4722,0.15797 4.4722,2.76065 0,1.6115 -1.87323,5.553 -4.5,9.4686 -2.475,3.6894 -4.5,7.1862 -4.5,7.7708 0,0.5845 2.025,4.0813 4.5,7.7707 2.62677,3.9156 4.5,7.8571 4.5,9.4686 0,2.6037 -0.2549,2.7607 -4.48315,2.7607 -4.3753,0 -4.54412,-0.1203 -7.01685,-5 -1.39353,-2.75 -2.74353,-5 -3,-5 -0.25647,0 -1.60647,2.25 -3,5 -2.47273,4.8797 -2.64155,5 -7.01685,5 -4.22825,0 -4.48315,-0.157 -4.48315,-2.7607 z m 34,-17.2393 0,-20.00005 14,0 14,0 0,12.00005 0,12 -9.5,0 -9.5,0 0,8 0,8 -4.5,0 -4.5,0 0,-20 z m 19,-8 c 0,-2.9334 -0.11111,-3 -5,-3 -4.88889,0 -5,0.067 -5,3 0,2.9333 0.11111,3 5,3 4.88889,0 5,-0.067 5,-3 z m 14,8 0,-20.00005 10.29705,0 10.29705,0 3.70295,3.79215 c 3.66182,3.7501 3.70295,3.8833 3.70295,12 l 0,8.2079 -4.5,0 c -2.475,0 -4.5,0.179 -4.5,0.3979 0,0.2188 1.11958,2.3563 2.48795,4.75 1.36838,2.3936 2.49338,5.8146 2.5,7.6021 0.0115,3.0964 -0.16684,3.25 -3.77332,3.25 -3.66444,0 -3.89605,-0.2157 -7.25,-6.75 l -3.46463,-6.75 -0.29569,6.75 -0.29569,6.75 -4.45431,0 -4.45431,0 0,-20 z m 19,-8 c 0,-2.9334 -0.11111,-3 -5,-3 -4.88889,0 -5,0.067 -5,3 0,2.9333 0.11111,3 5,3 4.88889,0 5,-0.067 5,-3 z m 14,8 0,-20.00005 14,0 14,0 0,4.50005 0,4.5 -9.5,0 -9.5,0 0,3 c 0,3 0,3 6,3 l 6,0 0,4.4501 0,4.45 -5.75,0.3 c -5.65558,0.2949 -5.75,0.3491 -5.75,3.2999 l 0,3 9.25,0.2875 9.25,0.2875 0,4.4625 0,4.4625 -14,0 -14,0 0,-20 z m 33,15.5 0,-4.5 9.5,0 9.5,0 0,-3.5 0,-3.5 -9.5,0 -9.5,0 0,-12 0,-12.00005 12.875,0 12.875,0 0.55497,2.75005 c 0.30523,1.5125 0.85963,3.5375 1.23199,4.5 0.61597,1.5922 -0.18921,1.75 -8.92997,1.75 l -9.60699,0 0,3 0,3 9.5,0 9.5,0 0,12.5 0,12.5 -14,0 -14,0 0,-4.5 z m 33,0 0,-4.5 9.5,0 9.5,0 0,-3.5 0,-3.5 -9.5,0 -9.5,0 0,-12 0,-12.00005 12.875,0 12.875,0 0.55497,2.75005 c 0.30523,1.5125 0.85963,3.5375 1.23199,4.5 0.61597,1.5922 -0.18921,1.75 -8.92997,1.75 l -9.60699,0 0,3 0,3 9.5,0 9.5,0 0,12.5 0,12.5 -14,0 -14,0 0,-4.5 z m -222.5,-46.58518 c -8.10221,-3.23298 -8.5,-4.12642 -8.5,-19.0914 0,-7.12522 0.45118,-13.79799 1.00263,-14.82838 1.24584,-2.32787 3.72879,-12.93392 5.50037,-23.49509 0.73808,-4.4 1.81611,-9.8 2.39562,-12 0.57952,-2.2 1.0644,-7.08074 1.07752,-10.84609 0.0131,-3.76535 0.72605,-9.26155 1.58429,-12.21377 0.85823,-2.95222 1.96339,-9.32148 2.4559,-14.15391 1.36394,-13.38261 2.94119,-23.33834 4.01539,-25.3455 2.36542,-4.41983 -0.78291,-15.99956 -5.38943,-19.82264 -0.83255,-0.69096 -1.78946,-2.46269 -2.12646,-3.93719 -0.337,-1.47449 -1.90952,-4.4809 -3.49449,-6.6809 -1.58496,-2.2 -4.11267,-6.025 -5.61712,-8.5 -1.50445,-2.475 -4.44079,-6.45306 -6.5252,-8.84013 -7.46897,-8.55349 -13.27309,-20.19955 -12.40002,-24.88081 0.54317,-2.91235 0.33343,-3.27942 -2.18914,-3.83129 -8.49998,-1.85954 -11.34643,-3.86746 -14.38722,-10.14889 -1.18131,-2.44025 -3.2524,-5.74953 -4.60244,-7.35396 -1.35004,-1.60443 -4.83985,-7.67546 -7.75514,-13.49117 -4.17908,-8.33684 -6.00274,-10.95063 -8.6195,-12.35401 -3.15243,-1.69066 -3.99419,-3.14982 -5.32897,-9.23751 -0.41657,-1.89989 -1.68526,-3.08067 -4.53531,-4.22103 -3.26802,-1.30761 -5.11032,-3.32687 -10.58157,-11.59799 -3.64354,-5.5081 -6.98664,-10.23848 -7.42911,-10.51194 -0.44246,-0.27346 -1.84299,-3.09236 -3.11228,-6.26423 -1.26929,-3.17187 -3.46217,-7.51057 -4.87306,-9.64154 -1.41089,-2.13098 -3.91526,-5.97646 -5.56526,-8.54552 -1.65,-2.56906 -4.7588,-6.75932 -6.90844,-9.3117 -2.14964,-2.55238 -4.03851,-5.86077 -4.1975,-7.35199 -0.4264,-3.99936 -1.78133,-4.91273 -5.19197,-3.5 -4.94711,2.04916 -10.84875,1.59016 -14.97772,-1.1649 -2.0484,-1.3668 -5.97437,-3.57055 -8.72437,-4.89722 -5.42664,-2.61796 -15.31247,-8.87678 -19.82673,-12.55251 -2.01176,-1.63808 -4.11667,-2.30166 -7.30098,-2.30166 -3.86211,0 -4.9268,-0.49397 -7.78191,-3.6105 -2.87696,-3.14037 -3.71067,-3.52199 -6.40272,-2.93072 -2.33333,0.51249 -4.15244,0.0721 -7.39136,-1.78929 -2.85613,-1.64142 -9.659683,-3.5332 -20.296303,-5.64354 -10.16882,-2.01752 -17.645886,-4.07004 -20.516116,-5.63183 -4.90513,-2.66907 -11.16164,-10.74329 -11.75437,-15.16941 -0.63645,-4.75249 2.59684,-11.09155 7.12392,-13.96687 2.28061,-1.44851 5.94657,-4.32196 8.14657,-6.38545 3.56964,-3.34815 5.344866,-4.06952 16.499996,-6.70487 6.875,-1.62418 14.975,-3.26516 18.000003,-3.64661 5.12407,-0.64616 24.1515,-5.23765 31.91652,-7.70175 2.74348,-0.8706 3.62997,-0.79962 4.5,0.3603 0.59592,0.79447 1.98348,1.78076 3.08348,2.19176 1.60467,0.59956 1.75292,0.49836 0.75,-0.51197 -1.9159,-1.93007 -1.55772,-2.52064 2.5,-4.1221 6.07301,-2.39684 14.98099,-3.14155 17.55519,-1.46763 1.20714,0.78498 3.99481,1.99845 6.19481,2.6966 5.10015,1.61849 17.63681,8.43667 21.51895,11.70328 1.63958,1.37961 2.98105,3.36839 2.98105,4.41949 0,2.214 0.64185,2.27914 8.37386,0.8498 l 5.74119,-1.06132 7.78036,4.56131 c 4.2792,2.50873 8.21467,4.56132 8.74548,4.56132 2.40822,0 9.67124,6.6768 11.82237,10.86815 1.30746,2.54752 3.04746,5.52588 3.86665,6.61857 1.4178,1.89115 1.5817,1.90325 3.40686,0.2515 1.83144,-1.65743 2.02265,-1.62321 4.26463,0.76327 1.29098,1.37418 3.0881,2.49851 3.99361,2.49851 0.90551,0 5.88957,4.82248 11.07568,10.71662 5.18612,5.89414 16.81913,18.83164 25.85114,28.75 9.032,9.91836 17.33646,19.06027 18.45434,20.31535 1.51416,1.69999 2.05152,3.74026 2.10701,8 0.063,4.84026 -0.28356,6.00428 -2.25788,7.58272 -1.81417,1.4504 -2.26492,2.6705 -2.02883,5.49165 0.26423,3.15734 0.88619,3.93712 4.80353,6.02235 5.89802,3.13956 13.5844,6.12653 18.20922,7.07619 5.05488,1.03798 8.33832,3.36812 11.25368,7.98636 1.35084,2.13985 2.93072,4.184 3.51087,4.54255 0.58015,0.35855 2.00523,2.53388 3.16686,4.83406 1.16163,2.30018 4.5302,7.41111 7.48571,11.35761 2.95551,3.9465 5.37366,7.64808 5.37366,8.22574 0,0.57767 1.575,2.48352 3.5,4.23523 1.925,1.75171 3.5,3.8069 3.5,4.56709 0,0.76019 1.96579,3.50038 4.36842,6.08932 2.40262,2.58894 5.12361,6.05716 6.04664,7.70716 4.10572,7.33937 15.70839,24.08384 20.80556,30.02565 1.49634,1.7443 3.5966,5.21503 4.66724,7.71274 1.07064,2.4977 2.43299,4.84187 3.02744,5.20926 1.99777,1.23469 6.24471,11.47286 5.60074,13.50181 -0.72601,2.28744 -6.08849,7.05054 -7.93778,7.05054 -0.69756,0 -2.07632,0.89287 -3.06392,1.98416 -2.62425,2.89975 -15.97401,11.01327 -18.15036,11.03115 -2.51251,0.0206 -4.99743,1.68396 -4.00427,2.68032 0.44099,0.4424 5.82796,0.9529 11.97104,1.13444 6.14309,0.18154 11.61015,0.75744 12.14904,1.27978 0.53888,0.52235 1.30601,3.74882 1.70474,7.16994 0.39872,3.42111 1.44142,10.27021 2.31711,15.22021 0.87568,4.95 2.24363,17.325 3.03988,27.5 0.79625,10.175 1.88385,20.075 2.41689,22 0.53303,1.925 1.13269,9.68474 1.33257,17.24386 0.19988,7.55913 0.69064,14.0711 1.09059,14.47104 2.46044,2.46045 3.70574,-11.91516 1.38866,-16.03064 -1.45817,-2.58994 -1.15316,-76.06719 0.32733,-78.85417 0.4879,-0.91846 2.57804,-2.21987 4.64476,-2.89204 4.67802,-1.52145 12.41911,-6.94222 11.95717,-8.37311 -0.18909,-0.58572 -1.91327,-1.81569 -3.83151,-2.73328 -5.68388,-2.71888 -10.48653,-8.8023 -11.31603,-14.33381 -0.39562,-2.63815 -1.78727,-7.0919 -3.09257,-9.89724 -2.60714,-5.60325 -5.16383,-12.45243 -6.38337,-17.10061 -0.43291,-1.65 -2.87711,-7.45323 -5.43156,-12.89607 -2.55445,-5.44284 -4.65536,-10.61784 -4.6687,-11.5 -0.0314,-2.07854 -4.34259,-7.63666 -15.47575,-19.95193 -11.70886,-12.95211 -16.40603,-18.62396 -19.6358,-23.71033 -1.44968,-2.28303 -3.55789,-5.01003 -4.6849,-6.06 -2.72546,-2.53915 -4.33495,-6.82602 -3.04654,-8.11443 0.63332,-0.63332 2.66652,-0.65687 5.67697,-0.0658 2.57965,0.50653 7.84027,1.31616 11.69027,1.79919 9.7178,1.21921 18.68845,3.26604 27.5,6.27466 4.125,1.40845 9.075,2.85082 11,3.20527 1.925,0.35445 4.625,1.02974 6,1.50064 1.375,0.47091 3.67215,1.10994 5.10477,1.42008 3.1414,0.68005 17.74618,12.33769 27.39523,21.86706 3.85,3.80225 8.19915,7.6217 9.66479,8.48767 1.46563,0.86597 3.14348,2.62512 3.72856,3.90922 1.38947,3.04955 3.64804,2.96429 5.7321,-0.21638 0.91935,-1.40311 2.88182,-3.17697 4.36104,-3.9419 3.15055,-1.62922 9.47626,-6.93605 22.06021,-18.50699 2.09353,-1.925 5.18947,-4.54673 6.87986,-5.82606 1.69039,-1.27933 3.07344,-2.74183 3.07344,-3.25 0,-2.00571 -2.48441,-0.73201 -6,3.07606 -2.03103,2.2 -4.38824,4 -5.23825,4 -1.57544,0 -4.67262,2.24434 -16.55996,12 -3.68599,3.025 -7.47187,6.10315 -8.41309,6.84032 -3.21488,2.51797 -7.7349,-0.2459 -18.95642,-11.59132 -5.84739,-5.91195 -10.93604,-11.77394 -11.30811,-13.02664 -0.5165,-1.73896 0.0102,-2.92151 2.22716,-5 1.59701,-1.4973 4.16609,-4.63486 5.70905,-6.97236 1.54297,-2.3375 3.18921,-4.25 3.65832,-4.25 0.46911,0 2.08813,-1.9125 3.59782,-4.25 1.5097,-2.3375 5.34108,-7.21378 8.51419,-10.83618 3.17311,-3.6224 5.76929,-7.05914 5.76929,-7.6372 0,-0.57806 4.12816,-5.38823 9.17368,-10.68927 5.04552,-5.30104 9.84719,-10.6393 10.67036,-11.8628 0.82318,-1.2235 3.8254,-4.92455 6.6716,-8.22455 2.8462,-3.3 6.36981,-7.904 7.83025,-10.2311 4.2081,-6.70533 9.51592,-6.60315 14.34619,0.27617 3.02922,4.31425 9.4514,11.98206 16.65792,19.88886 10.33624,11.34064 9.86457,13.69087 -6.27191,31.25192 -5.46529,5.94782 -11.70237,12.61419 -13.86019,14.81419 -3.93365,4.01054 -6.74724,8.30399 -5.9586,9.09263 0.23173,0.23174 2.33409,-0.96425 4.67191,-2.65776 5.54147,-4.01422 7.45878,-3.35028 6.70594,2.32217 -1.77048,13.34024 -2.61081,16.88285 -5.47619,23.08618 -3.32419,7.1966 -3.83848,10.52231 -2.12288,13.72794 1.08164,2.02105 0.11381,9.12673 -2.66725,19.58275 -0.75396,2.83465 -1.37083,6.04547 -1.37083,7.13516 0,2.25589 -2.54568,11.21366 -4.47812,15.75772 -0.71264,1.67573 -1.80627,5.50073 -2.43028,8.5 -0.9912,4.76409 -2.14281,6.54757 -9.11309,14.11322 -4.38818,4.763 -7.97851,9.39785 -7.97851,10.29966 0,2.7659 -2.61688,6.82813 -7.43425,11.54033 -8.21004,8.03081 -8.32284,8.58284 -9.13666,44.71314 -0.3938,17.48277 -0.82312,41.46186 -0.95407,53.28686 -0.27188,24.55284 -1.39368,38.3248 -3.27472,40.20256 -1.03919,1.03738 -16.87403,1.33853 -79,1.50243 -75.55346,0.19933 -77.83845,0.14987 -82.7003,-1.79012 z M 424.47667,712.67706 c -2.18717,-1.15752 -4.68711,-2.73047 -5.55542,-3.49544 -0.86831,-0.76498 -2.90135,-1.39087 -4.51787,-1.39087 -1.61651,0 -4.50608,-1.06146 -6.42126,-2.35881 -1.91517,-1.29734 -4.60713,-2.69236 -5.98213,-3.10004 -1.375,-0.40768 -4.075,-1.76245 -6,-3.0106 -1.925,-1.24816 -5.525,-3.34648 -8,-4.66295 -5.56812,-2.96171 -6.33034,-6.13313 -2.55295,-10.62231 1.40412,-1.6687 2.55295,-3.38784 2.55295,-3.82032 0,-0.98952 9.27789,-14.56404 13.69113,-20.03153 1.82309,-2.25861 4.47268,-6.28438 5.88796,-8.94616 1.41528,-2.66178 3.66397,-6.13586 4.99707,-7.72017 1.33311,-1.58431 2.42384,-3.28085 2.42384,-3.77009 0,-0.48925 1.8,-3.67449 4,-7.07831 2.2,-3.40383 4,-6.77345 4,-7.48803 0,-0.71459 2.1375,-4.23325 4.75,-7.81926 9.10879,-12.50301 10.77944,-15.06766 15.27491,-23.44882 2.4887,-4.63983 5.21813,-8.87333 6.06541,-9.40777 1.56248,-0.98559 2.94674,-0.43987 15.64105,6.16631 2.87725,1.49733 8.37085,5.73662 12.208,9.42064 3.83715,3.68402 7.34615,6.69822 7.79777,6.69822 0.45163,0 3.84553,2.87919 7.542,6.39819 4.57725,4.3575 6.72061,7.14829 6.72007,8.75 -9.4e-4,2.81845 -4.98229,13.62902 -8.35443,18.13089 -1.32696,1.77151 -2.72405,4.24553 -3.10464,5.49783 -0.3806,1.2523 -2.47519,4.33723 -4.65465,6.8554 -2.17946,2.51817 -6.3445,7.79356 -9.25564,11.72309 -2.91114,3.92953 -6.09109,7.80147 -7.06657,8.60431 -1.56402,1.28724 -6.7959,8.32792 -11.72677,15.78103 -4.65431,7.03509 -21.55021,24.71623 -24.51895,25.65847 -1.02942,0.32673 -3.64492,-0.35074 -5.84088,-1.5129 z m -61.47668,-19.88631 c -0.825,-0.53316 -2.34923,-0.97627 -3.38717,-0.98469 -1.03795,-0.008 -4.86295,-1.96527 -8.5,-4.34856 -3.63706,-2.38329 -8.15076,-4.86117 -10.03046,-5.50642 -5.05066,-1.73373 -13.9602,-8.82537 -14.6773,-11.68255 -0.51138,-2.03748 -1.23434,-2.47778 -4.06851,-2.47778 -3.21652,0 -3.60912,-0.36744 -5.88073,-5.50396 l -2.43411,-5.50396 5.82876,-8.24604 c 3.20582,-4.53532 7.11316,-10.49604 8.68299,-13.24604 4.24531,-7.43688 13.61129,-21.29035 23.95828,-35.43734 5.05352,-6.90946 9.72717,-14.19575 10.38588,-16.19174 0.65871,-1.996 2.12936,-4.471 3.2681,-5.5 1.13874,-1.02901 3.0993,-3.89592 4.3568,-6.37092 1.25749,-2.475 3.79635,-6.81974 5.64191,-9.65498 1.84556,-2.83524 5.54534,-9.02274 8.22174,-13.75 3.30742,-5.84181 5.44674,-8.59502 6.67857,-8.59502 0.99682,0 2.48739,-0.675 3.31239,-1.5 2.68923,-2.68923 3.7294,-2.37697 22.1457,6.64808 7.61873,3.73362 14.19334,7.80173 18,11.13768 3.29844,2.89058 7.69612,6.37129 9.77262,7.73492 4.85879,3.19074 5.31631,5.28578 2.7912,12.78144 -1.13666,3.37413 -2.06666,6.804 -2.06666,7.62193 0,1.38503 -1.97019,4.77454 -7.0193,12.07595 -2.73174,3.95031 -7.96164,11.95169 -10.54647,16.13535 -1.13617,1.83894 -2.98116,4.36078 -4.09998,5.60409 -1.11881,1.24331 -3.41711,4.31634 -5.10733,6.82897 -1.69022,2.51262 -4.67965,5.66262 -6.64319,7 -2.80463,1.91025 -3.57153,3.09949 -3.5769,5.54673 -0.004,1.71333 -0.90286,4.25426 -1.99801,5.64652 -1.09515,1.39225 -2.86673,4.57394 -3.93684,7.07042 -1.07012,2.49648 -3.21159,5.32612 -4.75882,6.2881 -1.54724,0.96198 -3.86432,2.67848 -5.14907,3.81444 -2.41122,2.13197 -7.16005,11.18131 -7.16935,13.66187 -0.003,0.77193 -0.7904,2.58725 -1.75,4.03404 -0.95961,1.44679 -3.40834,5.13066 -5.44163,8.18639 -2.03329,3.05573 -4.59121,6.03449 -5.68426,6.61947 -2.46737,1.3205 -7.1237,1.35298 -9.11885,0.0636 z m -63,-53.37348 c -4.125,-4.51587 -11.61451,-12.69174 -16.64335,-18.1686 -19.40795,-21.13698 -24.35665,-26.96353 -24.35665,-28.67727 0,-0.97619 1.575,-3.51823 3.5,-5.64897 1.925,-2.13074 3.5,-4.38499 3.5,-5.00943 0,-0.62444 3.09137,-4.2824 6.86972,-8.1288 6.853,-6.97643 9.59777,-8.24901 13.06271,-6.05637 1.73013,1.09484 7.73395,-3.72963 12.2018,-9.80496 1.63009,-2.21659 4.49022,-5.55657 6.35584,-7.42219 1.86562,-1.86562 3.70984,-4.70107 4.09825,-6.30098 1.0335,-4.25706 9.14349,-18.13344 13.97348,-23.90895 2.29979,-2.75 4.91569,-6.44302 5.81311,-8.20671 2.01038,-3.95097 10.11576,-10.29329 13.15465,-10.29329 4.9794,0 28.27442,13.60958 35.77771,20.90232 2.88065,2.7998 6.23996,5.79267 7.46513,6.65082 2.2388,1.56812 3.04331,5.82469 1.30406,6.89961 -0.50795,0.31392 -1.67375,2.82945 -2.59068,5.59005 -0.91692,2.7606 -2.68801,6.24281 -3.93576,7.73824 -1.24775,1.49543 -3.06582,4.29396 -4.04016,6.21896 -0.97434,1.925 -4.75015,7.95925 -8.39069,13.40945 -3.64054,5.45019 -8.26265,12.51048 -10.27135,15.68952 -3.1702,5.01728 -14.80821,21.74677 -37.4218,53.79335 -8.28624,11.74274 -9.33414,11.78235 -19.42602,0.7342 z"
       style="fill:#000000" />
  </g>
</svg>
