<?xml version="1.0" encoding="UTF-8" standalone="no"?>
<svg
   xmlns:dc="http://purl.org/dc/elements/1.1/"
   xmlns:cc="http://creativecommons.org/ns#"
   xmlns:rdf="http://www.w3.org/1999/02/22-rdf-syntax-ns#"
   xmlns:svg="http://www.w3.org/2000/svg"
   xmlns="http://www.w3.org/2000/svg"
   xmlns:sodipodi="http://sodipodi.sourceforge.net/DTD/sodipodi-0.dtd"
   xmlns:inkscape="http://www.inkscape.org/namespaces/inkscape"
   width="32"
   height="32"
   id="svg2"
   version="1.1"
   inkscape:version="0.91 r13725"
   sodipodi:docname="marker.svg">
  <sodipodi:namedview
     pagecolor="#ffffff"
     bordercolor="#666666"
     borderopacity="1"
     objecttolerance="10"
     gridtolerance="10"
     guidetolerance="10"
     inkscape:pageopacity="0"
     inkscape:pageshadow="2"
     inkscape:window-width="945"
     inkscape:window-height="687"
     id="namedview6"
     showgrid="false"
     inkscape:zoom="7.4039216"
     inkscape:cx="-6.1693074"
     inkscape:cy="15.961403"
     inkscape:window-x="0"
     inkscape:window-y="0"
     inkscape:window-maximized="0"
     inkscape:current-layer="svg2" />
  <defs
     id="defs4">
    <clipPath
       clipPathUnits="userSpaceOnUse"
       id="clipPath4314">
      <path
         style="opacity:1;fill:#000000;fill-opacity:1;fill-rule:evenodd;stroke:none;stroke-width:1px;stroke-linecap:butt;stroke-linejoin:miter;stroke-opacity:1"
         d="M 16,0 A 13,13 0 0 0 3,13 13,13 0 0 0 6.8203125,22.193359 l -0.013672,0 L 16,32 l 9.191406,-9.806641 -0.01172,0 A 13,13 0 0 0 29,13 13,13 0 0 0 16,0 Z"
         id="path4316"
         inkscape:connector-curvature="0" />
    </clipPath>
    <clipPath
       clipPathUnits="userSpaceOnUse"
       id="clipPath4318">
      <path
         style="opacity:1;fill:#000000;fill-opacity:1;fill-rule:evenodd;stroke:none;stroke-width:1px;stroke-linecap:butt;stroke-linejoin:miter;stroke-opacity:1"
         d="M 16,0 A 13,13 0 0 0 3,13 13,13 0 0 0 6.8203125,22.193359 l -0.013672,0 L 16,32 l 9.191406,-9.806641 -0.01172,0 A 13,13 0 0 0 29,13 13,13 0 0 0 16,0 Z"
         id="path4320"
         inkscape:connector-curvature="0" />
    </clipPath>
    <clipPath
       clipPathUnits="userSpaceOnUse"
       id="clipPath4322">
      <path
         style="opacity:1;fill:#000000;fill-opacity:1;fill-rule:evenodd;stroke:none;stroke-width:1px;stroke-linecap:butt;stroke-linejoin:miter;stroke-opacity:1"
         d="M 16,0 A 13,13 0 0 0 3,13 13,13 0 0 0 6.8203125,22.193359 l -0.013672,0 L 16,32 l 9.191406,-9.806641 -0.01172,0 A 13,13 0 0 0 29,13 13,13 0 0 0 16,0 Z"
         id="path4324"
         inkscape:connector-curvature="0" />
    </clipPath>
    <clipPath
       clipPathUnits="userSpaceOnUse"
       id="clipPath4326">
      <path
         style="opacity:1;fill:#000000;fill-opacity:1;fill-rule:evenodd;stroke:none;stroke-width:1px;stroke-linecap:butt;stroke-linejoin:miter;stroke-opacity:1"
         d="M 16,0 A 13,13 0 0 0 3,13 13,13 0 0 0 6.8203125,22.193359 l -0.013672,0 L 16,32 l 9.191406,-9.806641 -0.01172,0 A 13,13 0 0 0 29,13 13,13 0 0 0 16,0 Z"
         id="path4328"
         inkscape:connector-curvature="0" />
    </clipPath>
    <clipPath
       clipPathUnits="userSpaceOnUse"
       id="clipPath4330">
      <path
         style="opacity:1;fill:#000000;fill-opacity:1;fill-rule:evenodd;stroke:none;stroke-width:1px;stroke-linecap:butt;stroke-linejoin:miter;stroke-opacity:1"
         d="M 16,0 A 13,13 0 0 0 3,13 13,13 0 0 0 6.8203125,22.193359 l -0.013672,0 L 16,32 l 9.191406,-9.806641 -0.01172,0 A 13,13 0 0 0 29,13 13,13 0 0 0 16,0 Z"
         id="path4332"
         inkscape:connector-curvature="0" />
    </clipPath>
  </defs>
  <metadata
     id="metadata7">
    <rdf:RDF>
      <cc:Work
         rdf:about="">
        <dc:format>image/svg+xml</dc:format>
        <dc:type
           rdf:resource="http://purl.org/dc/dcmitype/StillImage" />
        <dc:title></dc:title>
      </cc:Work>
    </rdf:RDF>
  </metadata>
  <rect
     style="fill:#d64242;fill-opacity:1;fill-rule:nonzero;stroke:none;stroke-width:1.79999995;stroke-linecap:round;stroke-linejoin:round;stroke-miterlimit:4;stroke-dasharray:none;stroke-opacity:1"
     id="rect4144"
     width="32.54026"
     height="32.54026"
     x="-0.40752816"
     y="-0.50596595"
     clip-path="url(#clipPath4330)" />
  <path
     style="fill:#f23e3e;fill-opacity:1;fill-rule:evenodd;stroke:none;stroke-width:1px;stroke-linecap:butt;stroke-linejoin:miter;stroke-opacity:1"
     d="M -2.2,9.6973352 -2.2,19.900637 34.063086,9.2836882 33.511556,20.03852 Z"
     id="path4142"
     inkscape:connector-curvature="0"
     clip-path="url(#clipPath4326)" />
  <path
     sodipodi:nodetypes="ccccc"
     inkscape:connector-curvature="0"
     id="path4140"
     d="m -1.3727053,33.551 12.5473033,0 11.168479,-35.297908 10.479066,0.1378826 z"
     style="fill:#f23e3e;fill-opacity:1;fill-rule:evenodd;stroke:none;stroke-width:1px;stroke-linecap:butt;stroke-linejoin:miter;stroke-opacity:1"
     clip-path="url(#clipPath4322)" />
  <path
     style="fill:#f23e3e;fill-opacity:1;fill-rule:evenodd;stroke:none;stroke-width:1px;stroke-linecap:butt;stroke-linejoin:miter;stroke-opacity:1"
     d="m -1.3727053,-1.746908 12.5473033,0 L 22.343077,33.551 32.822143,33.413118 Z"
     id="path4136"
     inkscape:connector-curvature="0"
     sodipodi:nodetypes="ccccc"
     clip-path="url(#clipPath4318)" />
  <path
     id="path3097"
     d="m 14.990288,19.937191 c -0.233324,-0.09311 -0.244779,-0.118831 -0.244779,-0.549786 0,-0.205189 0.013,-0.397349 0.02887,-0.427021 0.03588,-0.06704 0.10738,-0.372465 0.158397,-0.676601 0.02125,-0.126709 0.0523,-0.282216 0.06899,-0.34557 0.01669,-0.06335 0.03066,-0.203908 0.03103,-0.312341 3.67e-4,-0.108433 0.02091,-0.26671 0.04562,-0.351726 0.02472,-0.08502 0.05654,-0.268435 0.07072,-0.407598 0.03928,-0.385387 0.08471,-0.672088 0.115635,-0.729888 0.06812,-0.12728 -0.02255,-0.460748 -0.155203,-0.570844 -0.02397,-0.01989 -0.05154,-0.07092 -0.06124,-0.113381 -0.0097,-0.04246 -0.05499,-0.129039 -0.100631,-0.192394 -0.04564,-0.06335 -0.118436,-0.173505 -0.16176,-0.24478 -0.04333,-0.07127 -0.127883,-0.18583 -0.187909,-0.254573 -0.215089,-0.24632 -0.382233,-0.581696 -0.35709,-0.716505 0.01564,-0.08386 0.0096,-0.09444 -0.06304,-0.110333 -0.244778,-0.05354 -0.326749,-0.111373 -0.414317,-0.292263 -0.03402,-0.07028 -0.09366,-0.165572 -0.132538,-0.211776 -0.03888,-0.04621 -0.139376,-0.221034 -0.223329,-0.388511 -0.120348,-0.240081 -0.172864,-0.315351 -0.24822,-0.355765 -0.09078,-0.04868 -0.115024,-0.09071 -0.153462,-0.266018 -0.012,-0.05471 -0.04853,-0.08871 -0.130605,-0.121555 -0.0941,-0.03765 -0.147161,-0.09581 -0.304718,-0.333994 -0.104925,-0.15862 -0.201199,-0.294843 -0.213941,-0.302718 -0.01274,-0.0078 -0.05307,-0.08905 -0.08962,-0.180395 -0.03656,-0.09134 -0.0997,-0.216286 -0.140332,-0.277652 -0.04065,-0.06137 -0.112765,-0.172109 -0.160281,-0.246091 -0.04752,-0.07398 -0.137041,-0.194653 -0.198945,-0.268156 -0.06191,-0.0735 -0.1163,-0.168775 -0.120878,-0.211719 -0.01228,-0.115173 -0.0513,-0.141475 -0.149515,-0.100792 -0.142465,0.05901 -0.312418,0.04579 -0.431322,-0.03355 -0.05899,-0.03936 -0.172047,-0.102823 -0.251241,-0.141028 -0.156274,-0.07539 -0.440961,-0.2556304 -0.57096,-0.3614823 -0.05793,-0.047173 -0.118551,-0.066282 -0.210251,-0.066282 -0.111219,0 -0.14188,-0.014226 -0.224099,-0.1039739 C 9.726474,9.5796958 9.702464,9.5687068 9.624939,9.5857338 9.557749,9.6004918 9.50536,9.5878138 9.412087,9.5342068 9.329848,9.4869378 9.133923,9.4324596 8.8276143,9.3716869 8.5347775,9.3135874 8.3194563,9.2544794 8.2368009,9.2095042 8.0955452,9.1326412 7.9153731,8.9001234 7.8983039,8.7726623 7.8799757,8.6358024 7.9730865,8.4532529 8.1034554,8.3704509 8.1691313,8.3287372 8.2747019,8.2459891 8.3380565,8.1865658 8.4408533,8.0901472 8.4919754,8.0693736 8.8132155,7.9934817 9.011199,7.9467095 9.244459,7.8994531 9.331572,7.8884685 9.479132,7.8698605 10.027076,7.7376368 10.25069,7.666677 c 0.07901,-0.025071 0.104534,-0.023028 0.129588,0.010377 0.01717,0.022879 0.05712,0.051281 0.0888,0.063117 0.04621,0.017266 0.05048,0.014351 0.0216,-0.014744 -0.05517,-0.055582 -0.04486,-0.072588 0.07199,-0.1187066 0.174887,-0.069023 0.431415,-0.090469 0.505545,-0.042264 0.03476,0.022606 0.115042,0.05755 0.178397,0.077655 0.146871,0.046609 0.507896,0.2429556 0.619692,0.337026 0.04722,0.039728 0.08584,0.097001 0.08584,0.1272705 0,0.063758 0.01848,0.065634 0.241147,0.024472 l 0.165331,-0.030563 0.224056,0.1313541 c 0.12323,0.072245 0.236562,0.1313548 0.251847,0.1313548 0.06935,0 0.27851,0.1922757 0.340456,0.3129758 0.03765,0.073362 0.08776,0.1591315 0.11135,0.1905989 0.04083,0.05446 0.04556,0.054809 0.09811,0.00724 0.05274,-0.047729 0.05825,-0.046744 0.122811,0.021981 0.03718,0.039572 0.08892,0.07195 0.115005,0.07195 0.02608,0 0.169606,0.1388763 0.318952,0.3086124 0.149348,0.1697368 0.48435,0.542305 0.74445,0.8279311 0.2601,0.285624 0.499247,0.54889 0.53144,0.585034 0.0436,0.04895 0.05907,0.10771 0.06067,0.230381 0.0018,0.139388 -0.0082,0.17291 -0.06502,0.218365 -0.05224,0.04177 -0.06523,0.07691 -0.05843,0.158146 0.0075,0.09093 0.02553,0.113379 0.13833,0.173428 0.169847,0.09042 0.391197,0.176431 0.52438,0.203778 0.145569,0.02989 0.240123,0.09699 0.324078,0.229987 0.0389,0.06162 0.08441,0.120489 0.101105,0.130814 0.0167,0.01032 0.05775,0.07297 0.0912,0.13921 0.03345,0.06623 0.130459,0.21342 0.215571,0.327071 0.08511,0.113649 0.154748,0.220245 0.154748,0.236881 0,0.01663 0.04535,0.07152 0.100791,0.121964 0.05544,0.05044 0.100792,0.109629 0.100792,0.13152 0,0.02189 0.05661,0.100803 0.125799,0.175358 0.06919,0.07456 0.147548,0.174432 0.174128,0.221948 0.118234,0.211355 0.452363,0.693555 0.59915,0.864664 0.04309,0.05023 0.103573,0.15018 0.134405,0.222108 0.03083,0.07192 0.07007,0.139434 0.08718,0.150014 0.05753,0.03555 0.179834,0.33039 0.161288,0.388818 -0.02091,0.06588 -0.175334,0.203038 -0.228589,0.203038 -0.02009,0 -0.05979,0.02572 -0.08823,0.05714 -0.07557,0.08351 -0.460012,0.317155 -0.522686,0.31767 -0.07236,5.95e-4 -0.143914,0.0485 -0.115313,0.07719 0.01271,0.01274 0.167831,0.02744 0.344736,0.03267 0.176906,0.0052 0.334345,0.02181 0.349863,0.03686 0.01551,0.01504 0.0376,0.107956 0.04909,0.206476 0.01149,0.09852 0.0415,0.295757 0.06673,0.438306 0.02522,0.142546 0.06462,0.498917 0.08754,0.791931 0.02292,0.293015 0.05426,0.578111 0.0696,0.633546 0.01536,0.05544 0.03262,0.278896 0.03838,0.49658 0.0058,0.217685 0.01989,0.405213 0.0314,0.416731 0.07085,0.07085 0.106717,-0.343128 0.03999,-0.461642 -0.04199,-0.07458 -0.0332,-2.190549 0.0094,-2.270807 0.01406,-0.02645 0.07425,-0.06393 0.133756,-0.08328 0.134718,-0.04381 0.357641,-0.199919 0.344339,-0.241125 -0.0054,-0.01687 -0.0551,-0.05228 -0.110338,-0.07872 -0.163683,-0.0783 -0.301986,-0.253484 -0.325874,-0.412779 -0.01139,-0.07597 -0.05147,-0.204228 -0.08906,-0.285015 -0.07508,-0.161361 -0.148706,-0.358599 -0.183825,-0.492455 -0.01247,-0.04752 -0.08286,-0.214635 -0.156415,-0.371376 -0.07356,-0.15674 -0.134064,-0.305766 -0.134448,-0.331171 -8.62e-4,-0.05986 -0.125056,-0.219918 -0.445663,-0.574566 -0.337186,-0.372988 -0.472453,-0.536325 -0.565462,-0.6828 -0.04174,-0.06574 -0.102459,-0.144276 -0.134914,-0.174512 -0.07849,-0.07312 -0.124837,-0.196573 -0.08773,-0.233676 0.01824,-0.01824 0.07679,-0.01893 0.163483,-0.0019 0.07428,0.01458 0.22578,0.0379 0.336651,0.05182 0.279848,0.03511 0.538181,0.09405 0.791932,0.180695 0.118789,0.04056 0.261338,0.08209 0.316773,0.0923 0.05543,0.01021 0.133188,0.02965 0.172785,0.04322 0.0396,0.01357 0.105749,0.03196 0.147005,0.04089 0.09046,0.01958 0.511046,0.355295 0.788915,0.629718 0.110871,0.109495 0.236115,0.219486 0.278323,0.244422 0.04221,0.02494 0.09052,0.0756 0.107373,0.112577 0.04001,0.08782 0.105054,0.08535 0.16507,-0.0062 0.02647,-0.04041 0.08298,-0.09149 0.125587,-0.113518 0.09073,-0.04692 0.272893,-0.199741 0.635279,-0.532955 0.06028,-0.05545 0.149444,-0.130935 0.198124,-0.167777 0.04868,-0.03684 0.08851,-0.07896 0.08851,-0.09359 0,-0.05776 -0.07155,-0.02108 -0.172785,0.08859 -0.05848,0.06335 -0.126371,0.11519 -0.150849,0.11519 -0.04537,0 -0.13456,0.06463 -0.476885,0.345571 -0.106149,0.08712 -0.215172,0.175755 -0.242277,0.196984 -0.09258,0.07251 -0.222746,-0.0071 -0.545899,-0.333802 -0.16839,-0.170249 -0.314931,-0.33906 -0.325645,-0.375135 -0.01486,-0.05007 3.26e-4,-0.08413 0.06414,-0.143987 0.04599,-0.04312 0.119973,-0.133472 0.164407,-0.200786 0.04443,-0.06732 0.09184,-0.12239 0.10535,-0.12239 0.01351,0 0.06013,-0.05507 0.103608,-0.12239 0.04348,-0.06732 0.153811,-0.20774 0.245188,-0.312055 0.09138,-0.104316 0.166142,-0.203286 0.166142,-0.219933 0,-0.01664 0.11888,-0.155167 0.264179,-0.307825 0.145299,-0.152657 0.283575,-0.306387 0.30728,-0.341621 0.02371,-0.03523 0.110162,-0.141815 0.192127,-0.236847 0.08196,-0.09503 0.183433,-0.227617 0.225491,-0.294632 0.121183,-0.193098 0.274035,-0.190156 0.413134,0.0079 0.08723,0.12424 0.272178,0.345054 0.479707,0.572752 0.297659,0.326583 0.284076,0.394265 -0.180615,0.89998 -0.157387,0.171283 -0.337,0.363257 -0.399139,0.426612 -0.113278,0.115494 -0.194304,0.239136 -0.171594,0.261846 0.0067,0.0067 0.06722,-0.02777 0.134541,-0.07654 0.15958,-0.1156 0.214794,-0.09648 0.193114,0.06687 -0.05099,0.384165 -0.07519,0.486184 -0.157701,0.664825 -0.09573,0.207244 -0.110538,0.303016 -0.06114,0.39533 0.03115,0.0582 0.0033,0.262828 -0.07681,0.563936 -0.02171,0.08163 -0.03948,0.174095 -0.03948,0.205474 0,0.06497 -0.07332,0.322926 -0.128959,0.453784 -0.02052,0.04827 -0.05202,0.158408 -0.06999,0.244779 -0.02855,0.137194 -0.0617,0.188555 -0.262434,0.406427 -0.126369,0.137162 -0.229761,0.270633 -0.229761,0.296604 0,0.07964 -0.07536,0.196633 -0.214088,0.332333 -0.236429,0.231268 -0.239678,0.247165 -0.263114,1.287628 -0.01134,0.503461 -0.02371,1.194 -0.02747,1.534532 -0.0078,0.70706 -0.04014,1.103658 -0.09431,1.157733 -0.02993,0.02987 -0.48593,0.03855 -2.275005,0.04326 -2.175754,0.0058 -2.241556,0.0044 -2.381565,-0.05154 z m 3.627818,-7.603374 c -0.06298,-0.03334 -0.134977,-0.07863 -0.159982,-0.100661 -0.025,-0.02203 -0.08355,-0.04005 -0.130103,-0.04005 -0.04655,0 -0.129765,-0.03057 -0.184918,-0.06793 -0.05514,-0.03735 -0.132673,-0.07754 -0.172269,-0.08927 -0.03959,-0.01174 -0.11735,-0.05075 -0.172786,-0.0867 -0.05543,-0.03595 -0.159107,-0.09638 -0.23038,-0.134282 -0.160348,-0.08529 -0.182298,-0.176619 -0.07352,-0.305896 0.04044,-0.04805 0.07352,-0.09756 0.07352,-0.110016 0,-0.0285 0.267179,-0.41941 0.394271,-0.57686 0.0525,-0.06505 0.128802,-0.180976 0.169559,-0.257628 0.04077,-0.07665 0.105513,-0.176699 0.143903,-0.222324 0.03839,-0.04562 0.0698,-0.09448 0.0698,-0.10857 0,-0.01409 0.05184,-0.105816 0.11519,-0.203838 0.06335,-0.09802 0.11519,-0.1950597 0.11519,-0.2156381 0,-0.020581 0.06155,-0.1219067 0.136787,-0.2251753 0.262311,-0.3600552 0.310421,-0.4339112 0.439881,-0.6752681 0.07166,-0.1336156 0.150268,-0.2555298 0.174669,-0.2709206 0.045,-0.028383 0.08486,-0.012666 0.450423,0.1775746 0.08286,0.043119 0.241059,0.1652005 0.35156,0.2712909 0.110502,0.1060913 0.211552,0.1928925 0.224557,0.1928925 0.013,0 0.110743,0.082913 0.217191,0.1842523 0.131813,0.1254851 0.193538,0.2058531 0.193521,0.2519786 -2.7e-5,0.081164 -0.143477,0.3924832 -0.240587,0.5221262 -0.03822,0.05101 -0.07845,0.122261 -0.08941,0.158325 -0.01096,0.03606 -0.07128,0.124902 -0.134044,0.197419 -0.06277,0.07252 -0.182705,0.224436 -0.26654,0.337599 -0.08384,0.11316 -0.175407,0.224663 -0.203498,0.247782 -0.04503,0.03707 -0.195706,0.239825 -0.337702,0.454455 -0.134033,0.202594 -0.620593,0.711767 -0.706086,0.738901 -0.02965,0.0094 -0.104965,-0.0101 -0.168203,-0.04357 z M 16.84773,11.761141 c -0.02376,-0.01536 -0.06766,-0.02812 -0.09754,-0.02835 -0.02989,-2.45e-4 -0.140042,-0.0566 -0.24478,-0.125229 -0.104738,-0.06863 -0.234722,-0.13999 -0.288851,-0.158572 -0.145448,-0.04993 -0.402021,-0.254149 -0.422672,-0.336429 -0.01472,-0.05867 -0.03555,-0.07135 -0.117163,-0.07135 -0.09263,0 -0.103934,-0.01058 -0.16935,-0.158501 l -0.0701,-0.158501 0.167853,-0.237468 c 0.09232,-0.130606 0.204842,-0.30226 0.250049,-0.381454 0.122254,-0.2141648 0.391972,-0.6131106 0.68994,-1.0205093 0.145528,-0.1989752 0.280118,-0.4088025 0.299087,-0.4662819 0.01897,-0.05748 0.06132,-0.1287538 0.09411,-0.1583867 0.03279,-0.029634 0.08925,-0.112193 0.125465,-0.1834669 0.03622,-0.071274 0.109325,-0.1963918 0.162473,-0.2780393 0.05315,-0.081648 0.159692,-0.2598328 0.236765,-0.3959662 0.09524,-0.16823 0.156853,-0.2475155 0.192327,-0.2475155 0.02871,0 0.07163,-0.019439 0.09539,-0.043196 0.07745,-0.077442 0.107397,-0.06845 0.637741,0.1914483 0.219401,0.1075192 0.408733,0.2246707 0.518355,0.3207382 0.09499,0.083241 0.221631,0.1834775 0.281427,0.2227463 0.139922,0.091885 0.153098,0.1522179 0.08038,0.3680746 -0.03274,0.097166 -0.05952,0.1959378 -0.05952,0.2194922 0,0.039886 -0.05673,0.1374952 -0.20214,0.3477578 -0.07866,0.1137588 -0.229274,0.3441794 -0.303712,0.4646578 -0.03272,0.052958 -0.08585,0.1255805 -0.118069,0.1613841 -0.03222,0.035804 -0.0984,0.1243005 -0.147078,0.1966578 -0.04868,0.072357 -0.134762,0.1630703 -0.191308,0.2015837 -0.08077,0.05501 -0.10285,0.08926 -0.103006,0.159733 -1.22e-4,0.04934 -0.026,0.122512 -0.05753,0.162606 -0.03154,0.04009 -0.08256,0.131718 -0.113372,0.203611 -0.03082,0.07189 -0.09249,0.153381 -0.137042,0.181083 -0.04456,0.02771 -0.111283,0.07714 -0.148281,0.109847 -0.06944,0.0614 -0.206192,0.321995 -0.206459,0.393429 -1.23e-4,0.02223 -0.02277,0.07451 -0.05039,0.116171 -0.02763,0.04167 -0.09815,0.147751 -0.156705,0.235749 -0.05855,0.088 -0.132216,0.173778 -0.163693,0.190623 -0.07105,0.03803 -0.205145,0.03896 -0.2626,0.0018 z m -1.814245,-1.537029 c -0.11879,-0.130048 -0.33447,-0.3654928 -0.479289,-0.5232127 -0.558901,-0.6086927 -0.70141,-0.7764834 -0.70141,-0.825835 0,-0.028112 0.04535,-0.101316 0.10079,-0.1626762 0.05544,-0.06136 0.100791,-0.1262767 0.100791,-0.1442591 0,-0.017983 0.08902,-0.123323 0.197832,-0.2340897 0.197349,-0.200904 0.276392,-0.2375507 0.376175,-0.1744087 0.04982,0.031529 0.222718,-0.1074041 0.351381,-0.2823581 0.04694,-0.063833 0.129307,-0.160016 0.183033,-0.2137411 0.05372,-0.053725 0.106833,-0.1353792 0.118019,-0.1814524 0.02976,-0.1225932 0.26331,-0.5221986 0.402402,-0.6885189 0.06622,-0.079194 0.14156,-0.1855434 0.167403,-0.2363333 0.05789,-0.1137783 0.291309,-0.2964215 0.378822,-0.2964215 0.143394,0 0.814233,0.3919225 1.030309,0.6019354 0.08296,0.080627 0.179696,0.1668148 0.214978,0.1915272 0.06447,0.045157 0.08764,0.1677367 0.03755,0.1986917 -0.01463,0.00904 -0.0482,0.081481 -0.07461,0.1609799 -0.02641,0.079499 -0.07741,0.1797775 -0.11334,0.2228419 -0.03593,0.043064 -0.08829,0.1236557 -0.116346,0.179091 -0.02805,0.055436 -0.136793,0.229207 -0.241631,0.3861593 -0.104839,0.1569519 -0.237944,0.3602706 -0.295791,0.4518192 -0.0913,0.1444857 -0.42644,0.6262536 -1.077654,1.5491181 -0.238624,0.338163 -0.268801,0.339303 -0.559422,0.02114 z"
     style="fill:#ffffff;fill-opacity:1"
     inkscape:connector-curvature="0"
     clip-path="url(#clipPath4314)" />
</svg>
