<?xml version="1.0" encoding="utf-8"?>

<!-- License Agreement at http://iconmonstr.com/license/ -->

<!DOCTYPE svg PUBLIC "-//W3C//DTD SVG 1.1//EN" "http://www.w3.org/Graphics/SVG/1.1/DTD/svg11.dtd">
<svg version="1.1" xmlns="http://www.w3.org/2000/svg" xmlns:xlink="http://www.w3.org/1999/xlink" x="0px" y="0px"
	 width="512px" height="512px" viewBox="0 0 512 512" style="enable-background:new 0 0 512 512;" xml:space="preserve">
<path id="medal-1" fill="#dddddd" d="M256,221.667c-66.354,0-120.167,53.814-120.167,120.167C135.833,408.187,189.646,462,256,462
	s120.166-53.813,120.166-120.166C376.166,275.48,322.354,221.667,256,221.667z M256,444.834c-56.89,0-103-46.119-103-103
	c0-56.882,46.11-103,103-103c56.898,0,103,46.119,103,103C359,398.715,312.898,444.834,256,444.834z M187.333,50l102.279,137.333
	h-67.946L118.666,50H187.333z M300.711,173.495L393.334,50h-68.668l-57.962,77.829L300.711,173.495z M256,256
	c-47.401,0-85.834,38.424-85.834,85.834c0,47.408,38.433,85.832,85.834,85.832c47.41,0,85.834-38.424,85.834-85.832
	C341.834,294.424,303.41,256,256,256z M273.166,393.334H256v-68.668h-34.334v-14.752c7.511,0,30.311-0.805,37.285-19.58h14.215
	V393.334z"/>
</svg>
